<svg width="646" height="143" viewBox="0 0 646 143" fill="none" xmlns="http://www.w3.org/2000/svg">
<path d="M236.52 139.192H261.48V99.6398L285.48 76.5998L330.6 139H359.4L302.76 60.2798L361.32 4.59976H327.72L261.48 66.9998V4.79176H236.52V139.192Z" fill="url(#paint0_linear_104_28)"/>
<path d="M429.367 142.84C477.367 142.84 503.287 108.28 503.287 71.7998C503.287 35.3198 477.367 0.759766 429.367 0.759766C381.367 0.759766 355.447 35.3198 355.447 71.7998C355.447 108.28 381.367 142.84 429.367 142.84ZM429.367 119.8C400.567 119.8 380.407 98.6798 380.407 71.7998C380.407 44.9198 400.567 23.7998 429.367 23.7998C458.167 23.7998 478.327 44.9198 478.327 71.7998C478.327 98.6798 458.167 119.8 429.367 119.8Z" fill="url(#paint1_linear_104_28)"/>
<path d="M520.582 139H545.542V95.7998L587.974 91.9598L616.582 139H645.382L614.47 87.9278C634.054 81.5918 645.382 66.6158 645.382 48.7598V4.59976H520.582V139ZM545.542 72.7598V27.6398H620.422V47.7998C620.422 62.1998 608.902 66.9998 598.342 67.9598L545.542 72.7598Z" fill="url(#paint2_linear_104_28)"/>
<path d="M48.6958 11.2002V22.2582H36.8398V11.2002H48.6958ZM38.2078 34.0002H47.3278V91.0002H38.2078V34.0002Z" fill="white"/>
<path d="M83.31 81.9942C79.282 81.9942 75.444 81.0442 71.796 79.1442C68.224 77.1682 65.298 74.3562 63.018 70.7082C60.814 67.0602 59.712 62.6902 59.712 57.5982C59.712 52.5062 60.814 48.1362 63.018 44.4882C65.222 40.7642 68.11 37.9142 71.682 35.9382C75.254 33.8862 79.13 32.8602 83.31 32.8602C84.602 32.8602 85.818 32.9742 86.958 33.2022C88.174 33.3542 89.314 33.6202 90.378 34.0002H113.52V43.8042C110.252 43.8042 106.984 43.1962 103.716 41.9802C100.524 40.7642 97.788 39.5102 95.508 38.2182L95.052 37.7622C97.712 39.2062 99.878 40.9162 101.55 42.8922C103.298 44.8682 104.59 47.1102 105.426 49.6182C106.338 52.0502 106.794 54.7102 106.794 57.5982C106.794 62.6902 105.692 67.0602 103.488 70.7082C101.36 74.3562 98.51 77.1682 94.938 79.1442C91.366 81.0442 87.49 81.9942 83.31 81.9942ZM100.068 113.8V111.292C100.068 107.264 99.004 104.338 96.876 102.514C94.824 100.69 91.708 99.7782 87.528 99.7782H76.128C73.62 99.7782 71.416 99.5502 69.516 99.0942C67.692 98.7142 66.172 98.1062 64.956 97.2702C63.74 96.4342 62.828 95.4082 62.22 94.1922C61.612 92.9762 61.308 91.6082 61.308 90.0882C61.308 87.2002 62.182 85.0342 63.93 83.5902C65.678 82.0702 67.844 81.1202 70.428 80.7402C73.012 80.3602 75.482 80.3602 77.838 80.7402L83.31 81.9942C79.206 82.2222 76.014 82.6402 73.734 83.2482C71.53 83.8562 70.428 85.1482 70.428 87.1242C70.428 88.2642 70.846 89.2142 71.682 89.9742C72.594 90.6582 73.924 91.0002 75.672 91.0002H87.528C91.48 91.0002 95.09 91.5322 98.358 92.5962C101.626 93.7362 104.248 95.5982 106.224 98.1822C108.2 100.842 109.188 104.452 109.188 109.012V113.8H100.068ZM83.31 73.4442C85.818 73.4442 88.136 72.8362 90.264 71.6202C92.468 70.4042 94.254 68.6182 95.622 66.2622C96.99 63.9062 97.674 61.0182 97.674 57.5982C97.674 54.1782 96.99 51.2902 95.622 48.9342C94.33 46.5022 92.582 44.6782 90.378 43.4622C88.174 42.1702 85.818 41.5242 83.31 41.5242C80.802 41.5242 78.446 42.1702 76.242 43.4622C74.038 44.6782 72.252 46.4642 70.884 48.8202C69.516 51.1762 68.832 54.1022 68.832 57.5982C68.832 61.0182 69.516 63.9062 70.884 66.2622C72.252 68.6182 74.038 70.4042 76.242 71.6202C78.446 72.8362 80.802 73.4442 83.31 73.4442Z" fill="white"/>
<path d="M164.83 91.0002V55.2042C164.83 52.2402 164.374 49.8082 163.462 47.9082C162.55 45.9322 161.182 44.4502 159.358 43.4622C157.534 42.4742 155.254 41.9802 152.518 41.9802C149.402 41.9802 146.514 42.7782 143.854 44.3742C141.194 45.9702 138.99 48.1742 137.242 50.9862C135.57 53.7222 134.544 56.9142 134.164 60.5622L134.05 53.9502C134.43 50.7582 135.19 47.8702 136.33 45.2862C137.546 42.7022 139.028 40.4982 140.776 38.6742C142.6 36.7742 144.652 35.3302 146.932 34.3422C149.288 33.3542 151.758 32.8602 154.342 32.8602C157.382 32.8602 160.118 33.3162 162.55 34.2282C164.982 35.1402 167.034 36.4702 168.706 38.2182C170.378 39.9662 171.67 42.0942 172.582 44.6022C173.494 47.0342 173.95 49.8082 173.95 52.9242V91.0002H164.83ZM125.614 91.0002V11.2002H134.734V91.0002H125.614Z" fill="white"/>
<path d="M184.826 34.0002H218.342V42.5502H184.826V34.0002ZM197.024 19.1802H206.144V91.0002H197.024V19.1802Z" fill="white"/>
<path d="M0 139V5H23.2484V113.5H219V139H0Z" fill="#4642F6"/>
<defs>
<linearGradient id="paint0_linear_104_28" x1="251.5" y1="-15" x2="619.5" y2="182.5" gradientUnits="userSpaceOnUse">
<stop stop-color="#4443F6"/>
<stop offset="1" stop-color="#7D18EB"/>
</linearGradient>
<linearGradient id="paint1_linear_104_28" x1="251.5" y1="-15" x2="619.5" y2="182.5" gradientUnits="userSpaceOnUse">
<stop stop-color="#4443F6"/>
<stop offset="1" stop-color="#7D18EB"/>
</linearGradient>
<linearGradient id="paint2_linear_104_28" x1="251.5" y1="-15" x2="619.5" y2="182.5" gradientUnits="userSpaceOnUse">
<stop stop-color="#4443F6"/>
<stop offset="1" stop-color="#7D18EB"/>
</linearGradient>
</defs>
</svg>
